<svg xmlns="http://www.w3.org/2000/svg" width="51" height="51"><path d="M26.764 51a1.423 1.423 0 0 1-.944-.359l-6.075-5.423L8.7 43.749a1.414 1.414 0 0 1-.63-.247L.585 38.217a1.394 1.394 0 0 1 .153-2.376l18.48-9.777 1.328 2.471-16.467 8.712 5.342 3.772 11.127 1.482a1.428 1.428 0 0 1 .757.347l5.665 5.058 20.165-10.6-4.714-4.188-11.012-1.45a1.4 1.4 0 0 1-.554-.2l-3.017-1.846 1.48-2.384 2.761 1.689 11.145 1.468a1.411 1.411 0 0 1 .755.345l6.546 5.816a1.4 1.4 0 0 1-.281 2.281l-22.825 12a1.412 1.412 0 0 1-.655.163zm-17.1-7.727l-1.295-2.487 9.049-4.647 1.295 2.487zm18.56-1.9l-1.378-2.444 15.309-8.5 1.377 2.444zm-3.932-22.82a5.636 5.636 0 0 1-4.028-1.616 5.614 5.614 0 0 1 4-9.559h.007a5.614 5.614 0 0 1 4.01 9.558 5.609 5.609 0 0 1-3.99 1.614zm-.026-8.375a2.735 2.735 0 0 0-2.8 2.783 2.773 2.773 0 0 0 .795 2 3.019 3.019 0 0 0 4.027 0 2.775 2.775 0 0 0 .793-2 2.731 2.731 0 0 0-2.8-2.783h-.014zm.007 26.247l-1.163-1.676c-.326-.472-8.024-11.578-9.586-14.059a13.235 13.235 0 0 1-2.185-7.856 12.934 12.934 0 0 1 25.868 0 13.238 13.238 0 0 1-2.184 7.854c-1.562 2.481-9.261 13.588-9.589 14.059zm0-33.628A10.087 10.087 0 0 0 14.16 12.836a10.462 10.462 0 0 0 1.755 6.369c1.171 1.861 6.085 8.989 8.358 12.277 2.273-3.288 7.188-10.416 8.359-12.276a10.464 10.464 0 0 0 1.753-6.368A10.087 10.087 0 0 0 24.272 2.794z" fill="#fff" fill-rule="evenodd"/></svg>