<svg xmlns="http://www.w3.org/2000/svg" width="51" height="60"><path d="M33.052 34.724l-6.126-5.933c-.68-.658-2.75-2.664-.38-4.959a4.637 4.637 0 0 1 1.872-.987c.882-.29.943-.374 1.016-.616a2.614 2.614 0 0 0-.947-1.624 2.864 2.864 0 0 0-1.734-.96c-.243.069-.327.128-.629.981a4.361 4.361 0 0 1-1.016 1.812 3.284 3.284 0 0 1-2.3 1.073 4.161 4.161 0 0 1-2.823-1.439l-4.851-4.7L33.077 0l17.917 17.348-4.685 4.538a4.634 4.634 0 0 1 3.149 3.067c.52 1.727-.27 3.9-2.016 5.532a6.1 6.1 0 0 1-5.662 1.906 4.62 4.62 0 0 1-3.171-3.047zm-2.893-8.328l2.893 2.8 3.085-2.989c.68-.658 2.752-2.664 5.12-.368a4.356 4.356 0 0 1 1.017 1.813c.3.853.386.912.639.983a2.773 2.773 0 0 0 1.676-.918 2.674 2.674 0 0 0 .993-1.68c-.071-.232-.132-.314-1.013-.6a4.621 4.621 0 0 1-1.871-.985c-2.373-2.3-.3-4.3.378-4.961l2.213-2.144L33.077 5.526l-12.235 11.85 1.618 1.567a4.622 4.622 0 0 1 3.168-3.05 6.13 6.13 0 0 1 5.711 1.951c1.7 1.587 2.489 3.759 1.969 5.484a4.637 4.637 0 0 1-3.149 3.072zm15.356-3.692zm-27.6 37.3L0 42.653l4.686-4.538a4.638 4.638 0 0 1-3.149-3.069c-.52-1.725.27-3.9 2.016-5.53a6.078 6.078 0 0 1 5.662-1.906 4.607 4.607 0 0 1 3.168 3.049l5.558-5.385 6.126 5.933c.679.658 2.75 2.664.38 4.96a4.591 4.591 0 0 1-1.872.984c-.88.292-.941.374-1.014.618a2.612 2.612 0 0 0 .947 1.623 2.879 2.879 0 0 0 1.732.961c.243-.069.327-.128.629-.983a4.383 4.383 0 0 1 1.014-1.81c2.372-2.292 4.443-.292 5.125.366l4.851 4.7zM5.7 42.653l12.212 11.821 12.235-11.852-1.62-1.567a4.616 4.616 0 0 1-3.168 3.052 6.119 6.119 0 0 1-5.71-1.952c-1.7-1.588-2.488-3.758-1.968-5.483a4.633 4.633 0 0 1 3.147-3.07l-2.893-2.8-3.083 2.988c-.68.658-2.747 2.662-5.121.37a4.394 4.394 0 0 1-1.02-1.815c-.3-.853-.384-.912-.635-.983a2.716 2.716 0 0 0-1.676.918 2.682 2.682 0 0 0-.993 1.678c.071.234.132.316 1.012.609a4.579 4.579 0 0 1 1.872.984c2.37 2.294.3 4.3-.376 4.958zm-.23-5.359z" fill="#a287d6" fill-rule="evenodd"/></svg>