<svg xmlns="http://www.w3.org/2000/svg" width="32.59" height="32.719"><path d="M2.03 32.701a2.036 2.036 0 0 1-1.48-.633 1.973 1.973 0 0 1 .1-2.818c9.22-8.489 22.69-8.472 31.33.048a1.973 1.973 0 0 1 0 2.819 2.044 2.044 0 0 1-2.86 0c-7.06-6.965-18.12-6.947-25.71.048a2.044 2.044 0 0 1-1.38.536zm14.26-12.773h-.1a9.969 9.969 0 1 1 7.3-16.954 9.86 9.86 0 0 1-.13 14.1 10.085 10.085 0 0 1-7.07 2.854zm-.01-15.95a5.982 5.982 0 1 0 4.25 10.248 5.9 5.9 0 0 0 1.81-4.214 5.892 5.892 0 0 0-1.73-4.245 6.071 6.071 0 0 0-4.27-1.789h-.06z" fill="#fff" fill-rule="evenodd"/></svg>